<?xml version="1.0" standalone="no"?>
<!DOCTYPE svg PUBLIC "-//W3C//DTD SVG 20010904//EN"
 "http://www.w3.org/TR/2001/REC-SVG-20010904/DTD/svg10.dtd">
<svg version="1.0" xmlns="http://www.w3.org/2000/svg"
 width="138.000000pt" height="31.000000pt" viewBox="0 0 138.000000 31.000000"
 preserveAspectRatio="xMidYMid meet">

<g transform="translate(0.000000,31.000000) scale(0.100000,-0.100000)"
fill="#000000" stroke="none">
<path d="M525 292 c-43 -15 -125 -66 -125 -78 0 -3 17 4 38 15 42 21 127 41
175 41 42 0 98 -30 109 -59 10 -29 -25 -66 -80 -80 -57 -16 -68 -8 -64 39 4
37 2 40 -21 40 -24 0 -27 -6 -46 -91 -12 -50 -21 -95 -21 -100 0 -5 13 -9 29
-9 30 0 41 14 41 56 0 23 3 24 68 24 80 0 126 23 148 75 24 57 -5 102 -85 130
-56 19 -104 19 -166 -3z"/>
<path d="M10 190 c0 -27 3 -35 15 -36 6 -1 13 -2 16 -3 4 0 0 -27 -7 -58 -19
-80 -18 -83 16 -83 26 0 30 4 40 43 26 104 25 102 48 99 16 -2 25 4 32 23 6
14 10 28 10 31 0 2 -38 4 -85 4 -78 0 -85 -2 -85 -20z"/>
<path d="M215 198 c-2 -7 -11 -44 -20 -83 -9 -38 -18 -78 -21 -87 -4 -14 1
-18 25 -18 25 0 30 5 36 30 8 36 18 43 46 35 15 -5 19 -14 17 -33 -3 -23 1
-27 22 -27 23 0 25 4 26 42 0 24 8 48 17 58 24 23 21 61 -5 79 -28 20 -137 22
-143 4z m96 -53 c0 -5 -12 -11 -26 -13 -18 -2 -25 1 -25 13 0 12 7 15 25 13
14 -2 26 -7 26 -13z"/>
<path d="M440 206 c0 -5 -27 -139 -35 -173 -5 -20 -1 -23 25 -23 16 0 30 2 30
4 0 5 27 139 35 174 5 19 1 22 -25 22 -16 0 -30 -2 -30 -4z"/>
<path d="M914 183 c-10 -50 -13 -53 -43 -53 -28 0 -29 2 -24 35 5 32 4 35 -19
35 -22 0 -26 -6 -36 -65 -7 -36 -15 -78 -18 -95 -6 -27 -4 -30 19 -30 22 0 26
6 32 40 6 36 9 40 37 40 30 0 31 -1 25 -41 -5 -39 -4 -40 21 -37 24 3 27 9 44
88 22 110 22 110 -7 110 -19 0 -26 -7 -31 -27z"/>
<path d="M1257 194 c-51 -28 -56 -104 -7 -104 10 0 31 -5 47 -11 27 -10 27
-11 9 -25 -25 -18 -41 -18 -60 1 -8 8 -24 15 -36 15 -17 0 -21 -5 -18 -27 7
-61 141 -52 163 10 12 37 -2 59 -46 70 -44 11 -58 25 -39 37 20 13 60 13 60 0
0 -5 11 -10 25 -10 31 0 33 23 3 44 -28 20 -65 20 -101 0z"/>
<path d="M1019 171 c-23 -23 -29 -38 -29 -71 0 -53 12 -75 48 -88 74 -26 148
59 121 137 -21 59 -91 70 -140 22z m97 -37 c16 -24 16 -27 -3 -52 -26 -35 -57
-39 -76 -11 -16 23 -13 43 11 72 21 24 49 21 68 -9z"/>
</g>
</svg>
